<?xml version="1.0" standalone="no"?>
<!DOCTYPE svg PUBLIC "-//W3C//DTD SVG 20010904//EN"
 "http://www.w3.org/TR/2001/REC-SVG-20010904/DTD/svg10.dtd">
<svg version="1.0" xmlns="http://www.w3.org/2000/svg"
 width="548.000000pt" height="548.000000pt" viewBox="0 0 548.000000 548.000000"
 preserveAspectRatio="xMidYMid meet">
<metadata>
Created by potrace 1.14, written by Peter Selinger 2001-2017
</metadata>
<g transform="translate(0.000000,548.000000) scale(0.100000,-0.100000)"
fill="#000000" stroke="none">
<path d="M2370 5455 c-47 -8 -103 -16 -125 -20 -22 -3 -97 -20 -167 -37 l-127
-31 39 -44 c65 -74 85 -126 84 -218 0 -92 -29 -167 -84 -222 l-32 -33 77 -184
77 -184 41 14 c46 16 173 49 227 59 19 4 42 8 50 10 14 3 56 8 164 20 22 3 41
7 44 10 4 4 6 292 3 357 -1 11 -19 26 -44 38 -154 72 -222 270 -147 426 22 44
24 55 13 53 -5 -1 -46 -7 -93 -14z"/>
<path d="M3008 5464 c-3 -2 7 -28 21 -57 22 -43 26 -65 25 -132 0 -67 -5 -89
-28 -134 -37 -72 -77 -114 -142 -148 -37 -19 -54 -34 -55 -48 0 -22 0 -296 1
-335 0 -21 5 -25 25 -25 13 1 55 -2 92 -7 63 -7 86 -11 166 -25 16 -2 77 -18
135 -34 59 -17 108 -27 110 -22 1 4 36 87 76 183 l73 175 -36 41 c-105 120
-99 312 13 427 21 22 36 40 34 42 -14 14 -328 81 -428 91 -30 3 -60 7 -67 9
-6 2 -13 2 -15 -1z"/>
<path d="M1313 5080 c-107 -66 -295 -199 -306 -217 -3 -5 16 -16 42 -26 112
-39 201 -166 203 -288 1 -38 -5 -85 -16 -117 l-18 -53 135 -135 135 -135 84
67 c95 77 217 158 307 203 l61 31 -16 38 c-8 20 -43 103 -76 185 -61 148 -67
156 -112 148 -18 -4 -122 32 -151 52 -91 62 -144 161 -147 272 0 25 -3 45 -7
45 -3 -1 -57 -32 -118 -70z"/>
<path d="M4033 5119 c5 -49 -16 -130 -46 -182 -52 -89 -142 -144 -252 -154
-33 -3 -60 -6 -61 -7 -6 -8 -144 -348 -144 -353 0 -5 30 -24 68 -43 114 -59
287 -178 360 -247 7 -7 17 -13 20 -13 4 0 67 60 140 133 l133 134 -16 51 c-22
67 -17 170 13 233 29 64 100 129 173 160 l62 27 -109 80 c-102 76 -287 193
-326 208 -15 5 -17 1 -15 -27z"/>
<path d="M573 4426 c-78 -107 -155 -220 -201 -299 l-50 -85 51 3 c171 9 317
-122 334 -298 l6 -63 66 -26 c36 -15 115 -47 175 -72 60 -25 110 -45 111 -43
1 1 21 38 45 82 42 78 126 209 152 236 7 8 32 37 55 65 l41 51 -136 136 -137
137 -50 -16 c-163 -50 -324 24 -396 184 -13 28 -26 52 -29 52 -3 -1 -19 -20
-37 -44z"/>
<path d="M93 3468 c-20 -73 -36 -140 -49 -203 -2 -11 -6 -31 -9 -45 -5 -28
-11 -64 -23 -158 -8 -56 -7 -62 7 -56 97 41 119 46 186 42 86 -5 147 -33 209
-94 24 -25 53 -65 63 -90 l18 -44 193 0 c146 0 192 3 193 13 7 126 42 327 78
438 17 51 27 97 23 101 -4 3 -83 38 -177 76 l-169 70 -35 -30 c-134 -118 -331
-106 -454 28 l-32 35 -22 -83z"/>
<path d="M2665 3060 c-256 -60 -348 -380 -162 -563 169 -166 441 -115 539 100
80 178 -12 393 -197 453 -46 15 -136 20 -180 10z"/>
<path d="M475 2590 c-32 -62 -90 -118 -155 -149 -73 -34 -190 -36 -263 -3 -27
12 -50 22 -51 22 -8 0 49 -326 69 -400 2 -8 10 -36 17 -62 l13 -48 45 47 c25
25 70 57 100 72 111 52 268 25 349 -59 l31 -33 162 67 c90 37 169 70 176 75
10 6 9 16 -2 49 -21 60 -64 256 -72 332 -4 36 -8 72 -10 80 -1 8 -3 24 -3 35
-1 19 -8 20 -192 20 l-191 0 -23 -45z"/>
<path d="M970 1916 c-41 -17 -119 -49 -172 -71 l-98 -40 -1 -40 c-1 -53 -3
-64 -27 -118 -49 -111 -165 -187 -286 -188 -36 -1 -71 3 -77 7 -29 18 218
-383 250 -406 4 -3 18 -20 31 -39 l23 -33 24 60 c66 165 239 249 397 193 l59
-21 133 133 132 132 -51 60 c-66 79 -195 277 -227 348 -14 31 -27 56 -30 56
-3 0 -39 -15 -80 -33z"/>
<path d="M3970 1341 c-45 -53 -250 -196 -360 -251 -36 -18 -67 -34 -68 -35 -7
-6 122 -323 137 -338 4 -4 27 -9 51 -12 179 -19 302 -159 295 -336 l-3 -66 86
49 c130 75 370 243 371 261 1 4 -5 7 -11 7 -29 0 -116 50 -152 86 -94 95 -117
233 -62 365 5 11 -27 49 -112 135 -165 165 -154 157 -172 135z"/>
<path d="M1354 1218 l-132 -133 16 -35 c9 -21 16 -65 16 -110 1 -142 -79 -253
-219 -306 -11 -4 -23 -8 -27 -8 -25 -3 -6 -23 87 -92 93 -70 330 -222 346
-224 4 0 3 17 -1 38 -7 39 -6 49 5 111 25 132 148 237 289 249 l61 4 63 153
c35 83 65 160 68 171 4 16 -8 27 -68 58 -91 48 -191 116 -291 195 -42 34 -78
61 -79 61 -2 0 -62 -60 -134 -132z"/>
<path d="M2080 915 c-16 -37 -30 -69 -30 -71 0 -2 -8 -23 -19 -47 -10 -23 -30
-68 -43 -100 l-26 -58 30 -32 c124 -132 105 -358 -39 -469 -25 -19 -31 -29
-22 -33 53 -19 292 -71 404 -89 124 -19 152 -17 125 10 -23 23 -46 111 -44
167 4 120 75 232 177 280 l52 25 0 186 c0 102 0 186 0 187 0 0 -20 2 -45 5
-55 7 -225 32 -261 39 -30 6 -185 50 -211 60 -15 6 -24 -6 -48 -60z"/>
<path d="M3295 959 c-112 -36 -225 -60 -350 -75 -91 -10 -99 -11 -107 -13 -3
0 -7 -86 -7 -189 l0 -188 33 -12 c69 -25 148 -113 175 -193 26 -80 15 -195
-23 -254 -9 -13 -16 -27 -16 -31 0 -7 85 2 195 22 121 21 122 21 238 50 l108
28 -50 47 c-130 127 -140 305 -26 445 19 23 35 46 35 50 0 14 -134 334 -140
333 -3 0 -32 -10 -65 -20z"/>
</g>
</svg>
